<?xml version="1.0" encoding="UTF-8" standalone="no"?>
<svg
   xmlns:dc="http://purl.org/dc/elements/1.1/"
   xmlns:cc="http://creativecommons.org/ns#"
   xmlns:rdf="http://www.w3.org/1999/02/22-rdf-syntax-ns#"
   xmlns:svg="http://www.w3.org/2000/svg"
   xmlns="http://www.w3.org/2000/svg"
   xmlns:sodipodi="http://sodipodi.sourceforge.net/DTD/sodipodi-0.dtd"
   xmlns:inkscape="http://www.inkscape.org/namespaces/inkscape"
   version="1.1"
   id="Capa_1"
   x="0px"
   y="0px"
   viewBox="0 0 322.1 346.2"
   style="enable-background:new 0 0 322.1 346.2;"
   xml:space="preserve"
   sodipodi:docname="Beta.svg"
   inkscape:version="1.0.2 (e86c870879, 2021-01-15, custom)"><metadata
   id="metadata16"><rdf:RDF><cc:Work
       rdf:about=""><dc:format>image/svg+xml</dc:format><dc:type
         rdf:resource="http://purl.org/dc/dcmitype/StillImage" /></cc:Work></rdf:RDF></metadata><defs
   id="defs14" /><sodipodi:namedview
   pagecolor="#ffffff"
   bordercolor="#666666"
   borderopacity="1"
   objecttolerance="10"
   gridtolerance="10"
   guidetolerance="10"
   inkscape:pageopacity="0"
   inkscape:pageshadow="2"
   inkscape:window-width="1366"
   inkscape:window-height="705"
   id="namedview12"
   showgrid="false"
   inkscape:zoom="1.554015"
   inkscape:cx="161.05"
   inkscape:cy="184.6181"
   inkscape:window-x="-8"
   inkscape:window-y="-8"
   inkscape:window-maximized="1"
   inkscape:current-layer="Capa_1" />
<style
   type="text/css"
   id="style2">
	.st0{fill:url(#SVGID_1_);}
	.st1{fill:#1E2624;}
	.st2{fill:url(#SVGID_2_);}
	.st3{fill:url(#SVGID_3_);}
</style>
<linearGradient
   id="SVGID_1_"
   gradientUnits="userSpaceOnUse"
   x1="161.055"
   y1="38.73"
   x2="161.055"
   y2="307.45">
	<stop
   offset="0"
   style="stop-color:#00A421"
   id="stop4" />
	<stop
   offset="1"
   style="stop-color:#006A25"
   id="stop6" />
</linearGradient>
<path
   class="st0"
   d="M212.9,148.2c0.5,0,1,0.1,1.5,0.1c15.6,0.1,21.4,0.1,37.9,1.1c6.1,0.4,12.6,1.1,17.4,1.7c0.6,0.1,7,1.5,9.4,3.3  c5.3,4,7.2,7.7,8.8,14.2c1.5,6.1,0.1,11.7-2.9,17c-3.6,6.2-8.8,11.1-14.6,15.2c-5.2,3.6-10.7,6.6-16.1,9.9c-0.3,0.2-0.7,0.4-0.6,0.4  c0.6,5.3,1.4,10.4,1.7,15.5c0.4,6.7-0.8,13.2-3.7,19.3c-0.9,2-2.1,3.9-3.4,5.6c-5.9,7.6-14.5,9.6-23.7,5.5  c-6.6-2.9-12.1-7.3-16.5-12.8c-5.2-6.6-10-13.6-15-20.4c-0.4-0.5-0.7-1.1-1.4-1.5c0.2,0.4,0.4,0.9,0.6,1.3  c7.8,14.8,12.6,30.5,15.1,47c0.6,3.8,0.9,7.6,1.3,11.4c0.1,0.6-0.3,1.4-0.7,1.8c-11,8.3-19.4,14.6-30.5,22.9c-0.1,0-1.2,1.1-2.1,0.9  c-0.5-0.1-1-1-0.6-1.9c1.1-2,2.1-3.3,3.1-5.7c4-9.6,7.1-19.5,8.8-29.8c2.2-13.3,0.9-26.3-3.6-39.1c-0.9-2.7-1.9-5.4-3.2-8  c-0.4,2.5-0.7,5.1-1.2,7.6c-2.8,13-3.8,19.1-6.7,32c-0.2,1-2.1,8.3-2.6,9.9c-0.9,2.8-3,6.6-4.3,8.2c-4.2,4.3-8.7,8.1-14.3,10.5  c-7.6,3.3-15,2.7-21.9-1.9c-6-3.9-10.3-9.4-13.9-15.4c-2.5-4.2-4.6-8.6-6.7-12.9c-0.5-1-0.9-1.3-2.1-1.1c-10.5,1.9-20.7,1.5-30.5-3  c-2.4-1.1-4.8-2.6-6.9-4.3c-7.3-5.9-9.3-14.3-5.6-22.9c1.9-4.4,4.7-8.2,8-11.5c9.7-9.6,20.2-18.3,31-26.6c4.5-3.4,9.1-6.7,13.6-10  c0.4-0.3,0.9-0.7,1.6-1.2c-0.8-0.1-1.2-0.2-1.6-0.2c-16.8-0.7-33.4-3.5-49.8-7c-5.2-1.1-6.9-1.7-12.1-3c-0.5-0.1-4.7-1.6-6.5-2.9  c-6.3-4.7-9.5-9.3-12.2-16.8c-3.1-8.2-1.4-15.6,4.3-22.2c6-6.8,13.9-10.9,22.1-14.5c2-0.9,4.1-1.6,6.2-2.4c1-0.4,1.2-0.8,1.1-1.8  c-1.3-10.9-0.1-21.4,5.4-31.1c1.2-2.1,2.6-4.1,4.3-5.8c6.6-7.1,15.2-8.5,23.8-3.9c4.7,2.5,8.6,6.1,12,10.2  c12,14.6,22.9,30,32.6,46.2c0.5,0.8,1,1.7,1.6,2.7c0.1-0.4,0.2-0.5,0.2-0.7c-0.4-12.9,1-25.6,2.8-38.3c1.5-11,3.2-20.4,6.1-31.2  c1-3.8,4.2-8.7,6.7-10.9c5.2-4.6,11.5-6.5,18.4-7.7c8.6-1.5,16,0.8,22.3,6.7c5.5,5.2,9.1,11.7,11.9,18.6c1.4,3.5,2.6,7.1,3.7,10.7  c0.4,1.4,1,1.9,2.5,1.8c9.3-0.5,18.3,1.1,26.6,5.4c4.2,2.2,7.9,4.9,10.7,8.8c5,6.9,5,14.1,0.8,21.3c-2.7,4.7-6.6,8.4-10.9,11.5  c-11.6,8.4-23.6,15.9-36,22.9c-0.5,0.3-1,0.6-1.5,0.8C212.9,148,212.9,148.1,212.9,148.2z"
   id="path9" />
<g
   id="g850"
   transform="matrix(1.4240813,0,0,1.4842702,-98.349491,-127.5277)"><rect
     style="fill:#252424;fill-opacity:1;stroke-width:89.3881"
     id="rect841"
     width="135.04723"
     height="53.151691"
     x="154.52525"
     y="184.94124"
     ry="13.525709"
     rx="13.407564" /><text
     xml:space="preserve"
     style="font-size:58.8488px;line-height:1.25;font-family:'Segoe UI';-inkscape-font-specification:'Segoe UI';letter-spacing:0px;word-spacing:0px;stroke-width:1.47122"
     x="172.54655"
     y="224.64906"
     id="text845"
     transform="scale(0.96807351,1.0329794)"><tspan
       sodipodi:role="line"
       id="tspan843"
       x="172.54655"
       y="224.64906"
       style="fill:#ffffff;fill-opacity:1;stroke-width:1.47122">Beta</tspan></text></g></svg>
