<?xml version="1.0" encoding="utf-8"?>
<!-- Generator: Adobe Illustrator 21.1.0, SVG Export Plug-In . SVG Version: 6.00 Build 0)  -->
<svg version="1.1" id="Capa_1" xmlns="http://www.w3.org/2000/svg" xmlns:xlink="http://www.w3.org/1999/xlink" x="0px" y="0px"
	 viewBox="0 0 322.1 346.2" style="enable-background:new 0 0 322.1 346.2;" xml:space="preserve">
<style type="text/css">
	.st0{fill:url(#SVGID_1_);}
	.st1{fill:#1E2624;}
	.st2{fill:url(#SVGID_2_);}
	.st3{fill:url(#SVGID_3_);}
</style>
<linearGradient id="SVGID_1_" gradientUnits="userSpaceOnUse" x1="161.055" y1="38.73" x2="161.055" y2="307.45">
	<stop  offset="0" style="stop-color:#00A421"/>
	<stop  offset="1" style="stop-color:#006A25"/>
</linearGradient>
<path class="st0" d="M212.9,148.2c0.5,0,1,0.1,1.5,0.1c15.6,0.1,21.4,0.1,37.9,1.1c6.1,0.4,12.6,1.1,17.4,1.7c0.6,0.1,7,1.5,9.4,3.3
	c5.3,4,7.2,7.7,8.8,14.2c1.5,6.1,0.1,11.7-2.9,17c-3.6,6.2-8.8,11.1-14.6,15.2c-5.2,3.6-10.7,6.6-16.1,9.9c-0.3,0.2-0.7,0.4-0.6,0.4
	c0.6,5.3,1.4,10.4,1.7,15.5c0.4,6.7-0.8,13.2-3.7,19.3c-0.9,2-2.1,3.9-3.4,5.6c-5.9,7.6-14.5,9.6-23.7,5.5
	c-6.6-2.9-12.1-7.3-16.5-12.8c-5.2-6.6-10-13.6-15-20.4c-0.4-0.5-0.7-1.1-1.4-1.5c0.2,0.4,0.4,0.9,0.6,1.3
	c7.8,14.8,12.6,30.5,15.1,47c0.6,3.8,0.9,7.6,1.3,11.4c0.1,0.6-0.3,1.4-0.7,1.8c-11,8.3-19.4,14.6-30.5,22.9c-0.1,0-1.2,1.1-2.1,0.9
	c-0.5-0.1-1-1-0.6-1.9c1.1-2,2.1-3.3,3.1-5.7c4-9.6,7.1-19.5,8.8-29.8c2.2-13.3,0.9-26.3-3.6-39.1c-0.9-2.7-1.9-5.4-3.2-8
	c-0.4,2.5-0.7,5.1-1.2,7.6c-2.8,13-3.8,19.1-6.7,32c-0.2,1-2.1,8.3-2.6,9.9c-0.9,2.8-3,6.6-4.3,8.2c-4.2,4.3-8.7,8.1-14.3,10.5
	c-7.6,3.3-15,2.7-21.9-1.9c-6-3.9-10.3-9.4-13.9-15.4c-2.5-4.2-4.6-8.6-6.7-12.9c-0.5-1-0.9-1.3-2.1-1.1c-10.5,1.9-20.7,1.5-30.5-3
	c-2.4-1.1-4.8-2.6-6.9-4.3c-7.3-5.9-9.3-14.3-5.6-22.9c1.9-4.4,4.7-8.2,8-11.5c9.7-9.6,20.2-18.3,31-26.6c4.5-3.4,9.1-6.7,13.6-10
	c0.4-0.3,0.9-0.7,1.6-1.2c-0.8-0.1-1.2-0.2-1.6-0.2c-16.8-0.7-33.4-3.5-49.8-7c-5.2-1.1-6.9-1.7-12.1-3c-0.5-0.1-4.7-1.6-6.5-2.9
	c-6.3-4.7-9.5-9.3-12.2-16.8c-3.1-8.2-1.4-15.6,4.3-22.2c6-6.8,13.9-10.9,22.1-14.5c2-0.9,4.1-1.6,6.2-2.4c1-0.4,1.2-0.8,1.1-1.8
	c-1.3-10.9-0.1-21.4,5.4-31.1c1.2-2.1,2.6-4.1,4.3-5.8c6.6-7.1,15.2-8.5,23.8-3.9c4.7,2.5,8.6,6.1,12,10.2
	c12,14.6,22.9,30,32.6,46.2c0.5,0.8,1,1.7,1.6,2.7c0.1-0.4,0.2-0.5,0.2-0.7c-0.4-12.9,1-25.6,2.8-38.3c1.5-11,3.2-20.4,6.1-31.2
	c1-3.8,4.2-8.7,6.7-10.9c5.2-4.6,11.5-6.5,18.4-7.7c8.6-1.5,16,0.8,22.3,6.7c5.5,5.2,9.1,11.7,11.9,18.6c1.4,3.5,2.6,7.1,3.7,10.7
	c0.4,1.4,1,1.9,2.5,1.8c9.3-0.5,18.3,1.1,26.6,5.4c4.2,2.2,7.9,4.9,10.7,8.8c5,6.9,5,14.1,0.8,21.3c-2.7,4.7-6.6,8.4-10.9,11.5
	c-11.6,8.4-23.6,15.9-36,22.9c-0.5,0.3-1,0.6-1.5,0.8C212.9,148,212.9,148.1,212.9,148.2z"/>
</svg>
